<svg xmlns="http://www.w3.org/2000/svg" version="1.1" xmlns:xlink="http://www.w3.org/1999/xlink" xmlns:svgjs="http://svgjs.dev/svgjs" width="1000" height="1000" viewBox="0 0 1000 1000"><rect width="1000" height="1000" fill="#ffffff"></rect><g transform="matrix(0.7,0,0,0.7,149.57575757575756,282.1265587044535)"><svg viewBox="0 0 396 247" data-background-color="#ffffff" preserveAspectRatio="xMidYMid meet" height="623" width="1000" xmlns="http://www.w3.org/2000/svg" xmlns:xlink="http://www.w3.org/1999/xlink"><g id="tight-bounds" transform="matrix(1,0,0,1,0.2400000000000091,-0.09999999999999432)"><svg viewBox="0 0 395.52 247.2" height="247.2" width="395.52"><g><svg></svg></g><g><svg viewBox="0 0 395.52 247.2" height="247.2" width="395.52"><g transform="matrix(1,0,0,1,75.54432000000001,98.8338812668953)"><svg viewBox="0 0 244.43135999999996 49.532237466209395" height="49.532237466209395" width="244.43135999999996"><g><svg viewBox="0 0 244.43135999999996 49.532237466209395" height="49.532237466209395" width="244.43135999999996"><g><svg viewBox="0 0 244.43135999999996 49.532237466209395" height="49.532237466209395" width="244.43135999999996"><g><svg viewBox="0 0 244.43135999999996 49.532237466209395" height="49.532237466209395" width="244.43135999999996"><g><svg viewBox="0 0 244.43135999999996 49.532237466209395" height="49.532237466209395" width="244.43135999999996"><g><svg viewBox="0 0 244.43135999999996 49.532237466209395" height="49.532237466209395" width="244.43135999999996"><g transform="matrix(1,0,0,1,0,0)"><svg width="244.43135999999996" viewBox="2.759999990463257 -37.70000076293945 242.02000427246094 49.05000305175781" height="49.532237466209395" data-palette-color="#113f67"><path d="M2.76-29.64L2.76-37.01 32.2-37.01 32.2-24.39 24.24-24.39 24.24-29.64 14.75-29.64 14.75-22.34 22.09-22.34 22.09-15.26 14.75-15.26 14.75-6.69 24.24-6.69 24.24-13.26 32.2-13.26 32.2 0 2.76 0 2.76-6.69 6.64-6.69 6.64-29.64 2.76-29.64ZM36.45-30.3L36.45-37.01 56.03-37.01Q58.88-37.01 61.13-36.16 63.38-35.3 64.91-33.87 66.45-32.45 67.27-30.55 68.09-28.66 68.09-26.61L68.09-26.61Q68.09-24.73 67.69-23.32 67.28-21.9 66.51-20.8 65.74-19.7 64.62-18.86 63.5-18.02 62.06-17.33L62.06-17.33Q63.3-16.7 64.26-15.39 65.21-14.09 65.7-12.01L65.7-12.01 66.94-7.2 69.99-7.2 70.04 0 59.3 0 57.83-8.79Q57.61-10.35 57.16-11.49 56.71-12.62 55.95-13.34 55.2-14.06 54.11-14.4 53.02-14.75 51.54-14.75L51.54-14.75 48.39-14.75 48.39-6.69 51.78-6.69 51.78 0 36.45 0 36.45-6.69 40.28-6.69 40.28-30.3 36.45-30.3ZM53.24-30.3L48.39-30.3 48.39-21.34 53.24-21.34Q54.64-21.34 55.75-21.59 56.86-21.85 57.65-22.4 58.44-22.95 58.87-23.78 59.3-24.61 59.3-25.76L59.3-25.76Q59.3-27.91 57.76-29.1 56.22-30.3 53.24-30.3L53.24-30.3ZM105.59-25.76L98.04-25.76Q96.67-27.71 95.58-28.53 94.48-29.35 93.21-29.7 91.94-30.05 90.55-30.05L90.55-30.05Q88.5-30.05 86.74-29.14 84.98-28.22 83.7-26.65 82.42-25.07 81.68-22.99 80.95-20.9 80.95-18.55L80.95-18.55Q80.95-16.19 81.67-14.1 82.39-12.01 83.66-10.45 84.93-8.89 86.69-7.97 88.45-7.06 90.55-7.06L90.55-7.06Q92.01-7.06 93.28-7.53 94.55-8.01 95.59-8.79 96.63-9.57 97.41-10.58 98.19-11.6 98.63-12.7L98.63-12.7 106.49-10.5Q105.73-8.11 104.27-6.07 102.8-4.03 100.74-2.54 98.68-1.05 96.1-0.2 93.53 0.66 90.55 0.66L90.55 0.66Q88.03 0.66 85.74-0.02 83.44-0.71 81.45-1.95 79.46-3.2 77.84-4.96 76.22-6.71 75.07-8.85 73.92-10.99 73.29-13.44 72.65-15.89 72.65-18.55L72.65-18.55Q72.65-22.53 74.04-26.01 75.43-29.49 77.85-32.09 80.27-34.69 83.53-36.19 86.79-37.7 90.55-37.7L90.55-37.7Q93.55-37.7 95.6-36.95 97.65-36.21 100.12-34.01L100.12-34.01 105.59-34.01 105.59-25.76ZM139.71-1.2L139.71-1.32Q138.34-0.54 136.98-0.2 135.61 0.15 134.19 0.15L134.19 0.15Q131.26 0.15 128.8-0.85 126.33-1.86 124.54-3.63 122.74-5.4 121.74-7.81 120.74-10.23 120.74-13.06L120.74-13.06Q120.74-15.72 121.71-18.08 122.67-20.43 124.4-22.2 126.14-23.97 128.55-25 130.97-26.03 133.8-26.05L133.8-26.05Q135.54-26.03 136.99-25.68 138.44-25.34 139.71-24.76L139.71-24.76 139.71-25.29 147.11-25.29 147.11-1.05Q147.11 2.15 146.01 4.48 144.91 6.81 143.07 8.34 141.23 9.86 138.78 10.61 136.34 11.35 133.66 11.35L133.66 11.35Q130.34 11.35 127.52 10.45 124.7 9.55 122.5 8.01L122.5 8.01 125.55 2.59Q127.24 3.66 129.21 4.28 131.19 4.91 133.61 4.91L133.61 4.91Q134.93 4.91 136.04 4.61 137.15 4.32 137.97 3.63 138.78 2.93 139.25 1.76 139.71 0.59 139.71-1.2L139.71-1.2ZM134.44-6.62L134.44-6.62Q136.15-6.62 137.53-7.48 138.91-8.35 139.71-9.77L139.71-9.77 139.76-15.92Q138.93-17.46 137.49-18.36 136.05-19.26 134.37-19.29L134.37-19.29Q133.17-19.26 132.02-18.81 130.87-18.36 130.03-17.53 129.19-16.7 128.7-15.56 128.21-14.43 128.21-13.04L128.21-13.04Q128.21-11.57 128.7-10.38 129.19-9.18 130.02-8.35 130.85-7.52 131.98-7.07 133.12-6.62 134.44-6.62ZM168.25-18.6L168.25-25.29 180.21-25.29 180.21-6.69 183.26-6.69 183.26 0 172.55 0 172.55-2.15Q171.25-0.98 169.52-0.34 167.79 0.29 165.51 0.29L165.51 0.29Q163.42 0.29 161.56-0.37 159.7-1.03 158.32-2.36 156.95-3.69 156.15-5.69 155.36-7.69 155.36-10.4L155.36-10.4 155.36-18.6 152.06-18.6 152.06-25.29 163.24-25.29 163.24-10.4Q163.24-7.86 164.54-6.6 165.83-5.35 167.91-5.35L167.91-5.35Q169.37-5.35 170.57-6.25 171.76-7.15 172.3-8.69L172.3-8.69 172.3-18.6 168.25-18.6ZM209.92-25.24L209.92-16.09 203.06-16.09 203.06-18.7Q202.06-18.7 201.23-18.57 200.4-18.43 199.78-18.12 199.15-17.8 198.73-17.24 198.3-16.67 198.13-15.84L198.13-15.84 198.13-6.69 203.28-6.69 203.28 0 186.78 0 186.78-6.69 190.56-6.69 190.56-18.6 186.83-18.6 186.83-25.29 198.08-25.29 198.08-23.51Q199.15-24.37 200.5-24.83 201.84-25.29 203.43-25.29L203.43-25.29Q205.04-25.29 206.75-25.27 208.46-25.24 209.92-25.24L209.92-25.24ZM229.77-18.6L229.77-25.29 241.73-25.29 241.73-6.69 244.78-6.69 244.78 0 234.06 0 234.06-2.15Q232.77-0.98 231.04-0.34 229.3 0.29 227.03 0.29L227.03 0.29Q224.93 0.29 223.08-0.37 221.22-1.03 219.84-2.36 218.46-3.69 217.67-5.69 216.88-7.69 216.88-10.4L216.88-10.4 216.88-18.6 213.58-18.6 213.58-25.29 224.76-25.29 224.76-10.4Q224.76-7.86 226.06-6.6 227.35-5.35 229.43-5.35L229.43-5.35Q230.89-5.35 232.09-6.25 233.28-7.15 233.82-8.69L233.82-8.69 233.82-18.6 229.77-18.6Z" opacity="1" transform="matrix(1,0,0,1,0,0)" fill="#000000" class="undefined-text-0" data-fill-palette-color="primary" id="text-0"></path></svg></g></svg></g></svg></g></svg></g></svg></g></svg></g></svg></g><g><path d="M0 123.6c0-68.262 55.338-123.6 123.6-123.6 57.696 0 106.159 39.532 119.78 92.987h-2.307c-13.567-52.209-61.019-90.754-117.473-90.754-67.029 0-121.367 54.338-121.367 121.367 0 67.029 54.338 121.367 121.367 121.367 56.454 0 103.906-38.545 117.473-90.754l2.307 0c-13.621 53.455-62.084 92.987-119.78 92.987-68.262 0-123.6-55.338-123.6-123.6z" fill="#113f67" stroke="transparent" data-fill-palette-color="tertiary"></path></g></svg></g><defs></defs></svg><rect width="395.52" height="247.2" fill="none" stroke="none" visibility="hidden"></rect></g></svg></g></svg>